<?xml version="1.0" encoding="UTF-8" standalone="no"?>
<svg
   xmlns:dc="http://purl.org/dc/elements/1.1/"
   xmlns:cc="http://creativecommons.org/ns#"
   xmlns:rdf="http://www.w3.org/1999/02/22-rdf-syntax-ns#"
   xmlns:svg="http://www.w3.org/2000/svg"
   xmlns="http://www.w3.org/2000/svg"
   xmlns:sodipodi="http://sodipodi.sourceforge.net/DTD/sodipodi-0.dtd"
   xmlns:inkscape="http://www.inkscape.org/namespaces/inkscape"
   width="913.12097mm"
   height="297mm"
   viewBox="0 0 913.12092 297"
   version="1.1"
   id="svg8"
   inkscape:version="1.0.1 (0767f8302a, 2020-10-17)"
   sodipodi:docname="logo.svg">
  <defs
     id="defs2" />
  <sodipodi:namedview
     id="base"
     pagecolor="#ffffff"
     bordercolor="#666666"
     borderopacity="1.0"
     inkscape:pageopacity="0.0"
     inkscape:pageshadow="2"
     inkscape:zoom="0.12234903"
     inkscape:cx="1773.8002"
     inkscape:cy="263.81774"
     inkscape:document-units="mm"
     inkscape:current-layer="layer1"
     inkscape:document-rotation="0"
     showgrid="false"
     showguides="true"
     inkscape:window-width="1366"
     inkscape:window-height="704"
     inkscape:window-x="0"
     inkscape:window-y="27"
     inkscape:window-maximized="1"
     units="mm" />
  <metadata
     id="metadata5">
    <rdf:RDF>
      <cc:Work
         rdf:about="">
        <dc:format>image/svg+xml</dc:format>
        <dc:type
           rdf:resource="http://purl.org/dc/dcmitype/StillImage" />
        <dc:title></dc:title>
      </cc:Work>
    </rdf:RDF>
  </metadata>
  <g
     inkscape:label="fondo"
     inkscape:groupmode="layer"
     id="layer1">
    <text
       xml:space="preserve"
       style="font-style:normal;font-weight:normal;font-size:123.472px;line-height:1.25;font-family:sans-serif;fill:#e41e7f;fill-opacity:1;stroke:none;stroke-width:0.264583"
       x="265.35373"
       y="174.66774"
       id="text1003"><tspan
         sodipodi:role="line"
         id="tspan1001"
         x="265.35373"
         y="174.66774"
         style="font-style:normal;font-variant:normal;font-weight:normal;font-stretch:normal;font-size:123.472px;font-family:'Fredoka One';-inkscape-font-specification:'Fredoka One';fill:#e41e7f;fill-opacity:1;stroke-width:0.264583">CAPCAKE</tspan></text>
    <path
       id="rect1023"
       style="opacity:0.997;fill:#ffd0dd;fill-opacity:1;stroke-width:1.68577;stroke-linecap:round;stroke-linejoin:round;paint-order:stroke fill markers"
       d="m 281.08482,198.20293 h 568.78211 v 28.70505 H 281.08482 c 0,0 -13.03606,-0.67322 -12.82263,-14.30817 0.22466,-14.35228 12.82263,-14.39688 12.82263,-14.39688 z"
       sodipodi:nodetypes="ccccsc" />
  </g>
  <g
     inkscape:groupmode="layer"
     id="layer2"
     inkscape:label="Circulo"
     style="display:inline">
    <g
       id="g928"
       transform="matrix(0.41898236,0,0,0.41898236,35.577924,19.345999)">
      <g
         id="g850">
        <circle
           cx="256"
           cy="267"
           fill="#b3dafe"
           r="245"
           id="circle848"
           style="fill:#66a8fe;fill-opacity:1" />
      </g>
      <path
         d="M 89.879968,447.00006 H 422.21996 c 32.892,-30.378 57.446,-69.644 69.826,-114 H 20.053968 c 12.379,44.356 36.934,83.622 69.826,114 z"
         fill="#57dd57"
         id="path852"
         style="fill:#f9dd57;fill-opacity:1" />
      <g
         id="g926">
        <path
           d="m 256,512 c 64.141,0 122.514,-24.659 166.186,-65 H 89.814 c 43.672,40.341 102.045,65 166.186,65 z"
           fill="#47a920"
           id="path924"
           style="fill:#f9b938;fill-opacity:1" />
      </g>
    </g>
  </g>
  <g
     inkscape:groupmode="layer"
     id="layer3"
     inkscape:label="cupcake"
     style="display:inline">
    <g
       inkscape:groupmode="layer"
       id="layer4"
       inkscape:label="shadow_cupcake">
      <path
         style="opacity:0.997;fill:#333333;fill-opacity:0.0485764;stroke:none;stroke-width:0.187642px;stroke-linecap:butt;stroke-linejoin:miter;stroke-opacity:1"
         d="m 98.283962,208.24232 c -1.268054,0.95514 1.059124,4.44196 1.059124,4.44196 0,0 25.178344,5.9266 34.879664,6.47085 0,0 32.58499,3.21483 46.58028,-1.83274 3.80237,-1.37138 9.31626,-4.01832 8.37554,-7.0871 -1.91873,-6.25913 -20.02547,-7.97511 -23.81131,-7.49401 -3.78586,0.4811 -50.67065,-6.86141 -67.083298,5.50104 z"
         id="path1126"
         sodipodi:nodetypes="scsaass" />
    </g>
    <g
       id="g922"
       transform="matrix(0.35375593,0,0,0.35375593,52.696389,53.070834)">
      <g
         id="g860">
        <path
           d="m 157.689,94.017 c 6.472,-4.035 14.104,-6.375 22.276,-6.375 h 14.164 l -0.414,-1.303 c -0.782,-2.461 -1.178,-5.025 -1.178,-7.621 0,-10.098 6.003,-19.185 15.295,-23.15 l 0.789,-0.336 -0.212,-0.831 c -0.519,-2.031 -0.781,-4.131 -0.781,-6.242 0,-0.61 0.029,-1.212 0.072,-1.812 -1.986,-2.678 -4.186,-5.248 -6.614,-7.677 -17.498,-17.498 -42.132,-23.506 -64.535,-18.031 -1.6,0.391 -2.85,1.641 -3.241,3.241 -5.475,22.402 0.533,47.036 18.031,64.535 2.024,2.024 4.148,3.885 6.348,5.602 z"
           fill="#57dd57"
           id="path854" />
        <path
           d="m 156.842,93.353 c 4.205,-2.668 8.899,-4.631 13.922,-5.72 -0.943,-0.844 -1.87,-1.716 -2.775,-2.622 -17.498,-17.498 -23.506,-42.132 -18.031,-64.535 0.161,-0.66 0.475,-1.254 0.892,-1.759 -4.807,0.138 -9.602,0.774 -14.299,1.922 -1.6,0.391 -2.85,1.641 -3.241,3.241 -5.475,22.402 0.533,47.036 18.031,64.535 1.764,1.764 3.602,3.407 5.501,4.938 z"
           fill="#3cc638"
           id="path856" />
        <path
           d="m 188.706,86.642 h 4.057 c -0.794,-2.5 -1.225,-5.161 -1.225,-7.924 0,-3.126 0.55,-6.123 1.556,-8.901 L 167.366,44.089 c -2.929,-2.929 -7.678,-2.929 -10.606,0 -2.929,2.929 -2.929,7.678 0,10.606 z"
           fill="#a2ea81"
           id="path858" />
      </g>
      <g
         id="g868">
        <path
           d="m 232.786,23 c 9.412,0 17.964,5.204 22.319,13.582 l 0.888,1.708 0.887,-1.708 C 261.231,28.204 269.79,23 279.214,23 c 0.936,0 1.858,0.055 2.768,0.156 C 280.491,10.124 269.431,0 256,0 242.569,0 231.509,10.124 230.018,23.156 230.928,23.055 231.85,23 232.786,23 Z"
           fill="#fe3d97"
           id="path862"
           style="fill:#fe3d97;fill-opacity:1" />
        <g
           id="g866">
          <path
             d="m 232.786,22 c 6.178,0 11.851,2.146 16.326,5.727 -0.031,-0.52 -0.061,-1.041 -0.061,-1.569 0,-11.055 6.861,-20.5 16.553,-24.331 C 262.631,0.653 259.392,0 256,0 242.922,0 232.087,9.597 230.15,22.132 231.017,22.045 231.896,22 232.786,22 Z"
             fill="#e41e7f"
             id="path864"
             style="fill:#c3186c;fill-opacity:1" />
        </g>
      </g>
      <g
         id="g878">
        <path
           d="m 217.696,53.56 c 7.664,0 14.534,3.449 19.152,8.871 4.346,-5.103 10.686,-8.457 17.806,-8.834 -0.388,-1.752 -0.599,-3.571 -0.599,-5.438 0,-3.912 0.898,-7.619 2.498,-10.924 C 252.414,28.244 243.332,22 232.786,22 c -14.447,0 -26.159,11.712 -26.159,26.159 0,2.597 0.384,5.103 1.088,7.47 3.063,-1.329 6.437,-2.069 9.981,-2.069 z"
           fill="#e41e7f"
           id="path870"
           style="fill:#e41e7f;fill-opacity:1" />
        <path
           d="m 217.696,52.56 c 3.586,0 7.003,0.723 10.115,2.029 C 227.29,52.53 227,50.379 227,48.159 227,37.325 233.586,28.03 242.972,24.058 239.842,22.733 236.399,22 232.786,22 c -14.447,0 -26.159,11.712 -26.159,26.159 0,2.24 0.283,4.415 0.813,6.49 3.15,-1.344 6.616,-2.089 10.256,-2.089 z"
           fill="#c3186c"
           id="path872"
           style="fill:#c3186c;fill-opacity:1" />
        <path
           d="m 256,53.56 c 7.664,0 14.534,3.449 19.152,8.871 4.618,-5.422 11.488,-8.871 19.152,-8.871 3.545,0 6.919,0.741 9.98,2.069 0.705,-2.368 1.088,-4.874 1.088,-7.47 C 305.372,33.712 293.66,22 279.213,22 c -14.447,0 -26.159,11.712 -26.159,26.159 0,1.893 0.206,3.736 0.588,5.515 0.777,-0.073 1.563,-0.114 2.358,-0.114 z"
           fill="#e41e7f"
           id="path874"
           style="fill:#ff5599;fill-opacity:1" />
        <path
           d="m 256,52.56 c 6.475,0 12.396,2.358 16.964,6.255 -1.456,-3.257 -2.282,-6.857 -2.282,-10.656 0,-11.354 7.235,-21.015 17.345,-24.633 C 285.273,22.54 282.307,22 279.213,22 c -14.447,0 -26.159,11.712 -26.159,26.159 0,1.544 0.141,3.055 0.398,4.526 0.84,-0.081 1.689,-0.125 2.548,-0.125 z"
           fill="#c3186c"
           id="path876"
           style="fill:#c3186c;fill-opacity:1" />
      </g>
      <g
         id="g892">
        <path
           d="m 242.292,87.642 c 1.011,-2.785 1.563,-5.789 1.563,-8.923 0,-14.447 -11.712,-26.159 -26.159,-26.159 -14.447,0 -26.159,11.712 -26.159,26.159 0,3.134 0.553,6.139 1.563,8.923 z"
           fill="#fe3d97"
           id="path880"
           style="fill:#fe3d97;fill-opacity:1" />
        <path
           d="m 211.506,86.642 c -0.794,-2.499 -1.225,-5.161 -1.225,-7.924 0,-11.143 6.971,-20.653 16.787,-24.422 -2.91,-1.118 -6.068,-1.736 -9.372,-1.736 -14.447,0 -26.159,11.712 -26.159,26.159 0,2.763 0.431,5.424 1.225,7.924 h 18.744 z"
           fill="#e41e7f"
           id="path882"
           style="fill:#c3186c;fill-opacity:1" />
        <path
           d="m 280.595,87.642 c 1.011,-2.785 1.563,-5.789 1.563,-8.923 0,-14.447 -11.712,-26.159 -26.159,-26.159 -14.447,0 -26.159,11.712 -26.159,26.159 0,3.134 0.553,6.139 1.563,8.923 z"
           fill="#fe3d97"
           id="path884"
           style="fill:#e41e7f;fill-opacity:1" />
        <path
           d="m 249.809,86.642 c -0.794,-2.499 -1.225,-5.161 -1.225,-7.924 0,-11.143 6.971,-20.653 16.787,-24.422 -2.91,-1.118 -6.068,-1.736 -9.372,-1.736 -14.447,0 -26.159,11.712 -26.159,26.159 0,2.763 0.431,5.424 1.225,7.924 h 18.744 z"
           fill="#e41e7f"
           id="path886"
           style="fill:#c3186c;fill-opacity:1" />
        <path
           d="m 318.899,87.642 c 1.011,-2.785 1.563,-5.789 1.563,-8.923 0,-14.447 -11.712,-26.159 -26.159,-26.159 -14.447,0 -26.159,11.712 -26.159,26.159 0,3.134 0.553,6.139 1.563,8.923 z"
           fill="#e41e7f"
           id="path888"
           style="fill:#fe3d97;fill-opacity:1" />
        <path
           d="m 288.113,86.642 c -0.794,-2.499 -1.225,-5.161 -1.225,-7.924 0,-11.143 6.971,-20.653 16.787,-24.422 -2.91,-1.118 -6.068,-1.736 -9.372,-1.736 -14.447,0 -26.159,11.712 -26.159,26.159 0,2.763 0.431,5.424 1.225,7.924 h 18.744 z"
           fill="#c3186c"
           id="path890"
           style="fill:#c3186c;fill-opacity:1" />
      </g>
      <path
         d="m 153.019,163.676 h 205.962 c 9.924,-7.922 16.289,-20.114 16.289,-33.799 0,-23.878 -19.357,-43.235 -43.235,-43.235 h -152.07 c -23.878,0 -43.235,19.357 -43.235,43.235 0,13.686 6.365,25.877 16.289,33.799 z"
         fill="#fcf0de"
         id="path894" />
      <path
         d="m 151.813,162.677 h 31.27 C 173.854,154.747 168,143 168,129.877 c 0,-23.878 19.357,-43.235 43.235,-43.235 h -31.27 c -23.878,0 -43.235,19.357 -43.235,43.235 0,13.123 5.854,24.87 15.083,32.8 z"
         fill="#fae2c0"
         id="path896" />
      <path
         d="m 395.582,231.588 c 5.341,-7.193 8.511,-16.081 8.511,-25.676 0,-23.78 -19.456,-43.235 -43.235,-43.235 H 151.142 c -23.779,0 -43.235,19.456 -43.235,43.235 0,9.595 3.171,18.483 8.511,25.676 z"
         fill="#ffffff"
         id="path898"
         style="fill:#ffffc8;fill-opacity:1" />
      <path
         d="M 146.799,230.588 C 141.893,223.578 139,215.069 139,205.912 c 0,-23.78 19.456,-43.235 43.235,-43.235 h -31.094 c -23.779,0 -43.235,19.456 -43.235,43.235 0,9.156 2.893,17.665 7.799,24.676 z"
         fill="#fcf0de"
         id="path900"
         style="fill:#fff2a7;fill-opacity:1" />
      <g
         id="g920">
        <path
           d="m 372.816,448 44.19,-132.385 c -4.128,1.32 -8.521,2.039 -13.081,2.039 -10.716,0 -20.984,-3.963 -28.913,-11.16 l -0.672,-0.61 -0.672,0.61 c -7.929,7.197 -18.196,11.16 -28.913,11.16 -10.716,0 -20.984,-3.963 -28.913,-11.16 l -0.672,-0.61 -0.672,0.61 c -7.929,7.197 -18.197,11.16 -28.913,11.16 -10.716,0 -20.984,-3.963 -28.913,-11.16 l -0.672,-0.61 -0.672,0.61 c -7.929,7.197 -18.197,11.16 -28.913,11.16 -10.716,0 -20.984,-3.963 -28.913,-11.16 l -0.672,-0.61 -0.672,0.61 c -7.929,7.197 -18.197,11.16 -28.913,11.16 -10.716,0 -20.984,-3.963 -28.913,-11.16 l -0.672,-0.61 -0.672,0.61 c -7.929,7.197 -18.197,11.16 -28.913,11.16 -8.962,0 -17.29,-2.757 -24.188,-7.462 l 46,137.808 z"
           fill="#ffd757"
           id="path902"
           style="fill:#ff9757;fill-opacity:1" />
        <path
           d="m 338.736,448 33.347,-138.865 c -7.51,5.955 -17,9.52 -27.329,9.52 -11.389,0 -21.768,-4.324 -29.585,-11.42 -7.817,7.095 -18.196,11.42 -29.585,11.42 -11.389,0 -21.768,-4.324 -29.585,-11.42 -7.817,7.095 -18.196,11.42 -29.585,11.42 -11.389,0 -21.768,-4.324 -29.585,-11.42 -7.817,7.095 -18.196,11.42 -29.585,11.42 -11.389,0 -21.768,-4.324 -29.585,-11.42 -1.962,1.781 -4.085,3.386 -6.345,4.793 L 163.968,448 Z"
           fill="#ffbc27"
           id="path904"
           style="fill:#ff6b27;fill-opacity:1" />
        <path
           d="m 304.656,448 19.683,-134.366 c -3.328,-1.745 -6.411,-3.895 -9.169,-6.399 -7.817,7.095 -18.196,11.42 -29.585,11.42 -11.389,0 -21.768,-4.324 -29.585,-11.42 -7.817,7.095 -18.196,11.42 -29.585,11.42 -11.389,0 -21.768,-4.324 -29.585,-11.42 -5.054,4.587 -11.183,8.006 -17.959,9.857 L 198.047,448 Z"
           fill="#ffd757"
           id="path906"
           style="fill:#ff9757;fill-opacity:1" />
        <path
           d="m 270.576,448 6.873,-130.1 c -8.166,-1.526 -15.541,-5.302 -21.45,-10.666 -7.817,7.095 -18.196,11.42 -29.585,11.42 -0.376,0 -0.749,-0.017 -1.123,-0.027 L 232.127,448 Z"
           fill="#ffbc27"
           id="path908"
           style="fill:#ff6227;fill-opacity:1" />
        <g
           id="g912">
          <path
             d="m 403.925,230.588 h -295.85 c -24.319,0 -44.033,19.714 -44.033,44.033 0,24.319 19.714,44.033 44.033,44.033 11.389,0 21.768,-4.324 29.585,-11.42 7.817,7.096 18.196,11.42 29.585,11.42 11.389,0 21.768,-4.324 29.585,-11.42 7.817,7.096 18.196,11.42 29.585,11.42 11.389,0 21.768,-4.324 29.585,-11.42 7.817,7.096 18.196,11.42 29.585,11.42 11.389,0 21.768,-4.324 29.585,-11.42 7.817,7.096 18.196,11.42 29.585,11.42 11.389,0 21.768,-4.324 29.585,-11.42 7.817,7.096 18.196,11.42 29.585,11.42 24.319,0 44.033,-19.714 44.033,-44.033 0,-24.319 -19.715,-44.033 -44.033,-44.033 z"
             fill="#e41e7f"
             id="path910" />
        </g>
        <g
           id="g918">
          <g
             id="g916">
            <path
               d="m 95.084,274.621 c 0,-24.319 19.714,-44.033 44.033,-44.033 h -31.042 c -24.319,0 -44.033,19.714 -44.033,44.033 0,24.319 19.714,44.033 44.033,44.033 5.464,0 10.69,-1.005 15.518,-2.823 -16.657,-6.278 -28.509,-22.357 -28.509,-41.21 z"
               fill="#c3186c"
               id="path914" />
          </g>
        </g>
      </g>
    </g>
  </g>
  <g
     inkscape:groupmode="layer"
     id="layer5"
     inkscape:label="velita">
    <g
       inkscape:groupmode="layer"
       id="layer6"
       inkscape:label="shadow_vellita">
      <path
         style="fill:#c21a6a;fill-opacity:1;stroke:none;stroke-width:0.264583px;stroke-linecap:butt;stroke-linejoin:miter;stroke-opacity:1"
         d="m 113.02018,143.29542 c 0,0 -0.51524,1.18953 -0.11568,2.47342 0.39956,1.28389 1.12254,1.92036 2.77671,1.76609 3.46602,-0.32322 9.62696,-4.97055 7.65633,-7.24347 -1.08505,-1.13701 -4.71485,-0.0382 -4.71485,-0.0382 z"
         id="path1173"
         sodipodi:nodetypes="czsccc" />
    </g>
    <path
       style="fill:#fca1aa;fill-opacity:1;stroke:none;stroke-width:0.148427px;stroke-linecap:butt;stroke-linejoin:miter;stroke-opacity:1"
       d="m 113.71191,146.04635 c 0,0 0.96097,1.71035 5.02423,-0.61248 4.35989,-2.49211 3.29245,-4.12157 3.29245,-4.12157 L 93.909317,91.913558 85.592686,96.647581 Z"
       id="path1138"
       sodipodi:nodetypes="cscccc" />
    <path
       style="fill:#fcd8ef;fill-opacity:1;stroke:none;stroke-width:0.148427px;stroke-linecap:butt;stroke-linejoin:miter;stroke-opacity:1"
       d="m 118.73613,145.43386 c 4.35989,-2.49211 3.29246,-4.12157 3.29246,-4.12157 L 93.909317,91.913558 89.646205,94.340223 c 6.083882,10.687917 29.089905,51.093647 29.089905,51.093647 z"
       id="path1138-3"
       sodipodi:nodetypes="sccccs" />
    <path
       style="fill:#fcf639;fill-opacity:1;stroke:none;stroke-width:0.148427px;stroke-linecap:butt;stroke-linejoin:miter;stroke-opacity:1"
       d="m 80.113878,72.32721 c 0,0 -3.933757,8.268791 -4.322187,12.15962 -0.38842,3.890836 -0.241233,7.311038 1.499403,10.44908 3.814853,5.70945 11.43225,8.49637 16.675291,5.4231 5.768228,-3.988829 5.674648,-12.723708 1.071745,-16.325467 -2.50261,-1.843971 -5.776818,-2.168928 -9.413229,-4.529236 -3.636416,-2.360304 -5.511023,-7.177097 -5.511023,-7.177097 z"
       id="path1155"
       sodipodi:nodetypes="czccczc" />
    <path
       style="fill:#fcdf39;fill-opacity:1;stroke:none;stroke-width:0.148427px;stroke-linecap:butt;stroke-linejoin:miter;stroke-opacity:1"
       d="m 80.113878,72.32721 c 0,0 -3.933757,8.268791 -4.322187,12.15962 -0.388424,3.890826 -0.403767,7.406848 1.499396,10.44908 3.332357,5.32681 10.165392,8.00173 15.291375,6.08131 0.475881,-0.17837 0.730279,-0.28613 0.730279,-0.28613 0,0 -1.799688,-4.687086 -5.030997,-9.678909 -3.231311,-4.9918 -11.392899,-11.112037 -8.167861,-18.724961 z"
       id="path1155-6"
       sodipodi:nodetypes="czssczc" />
  </g>
</svg>
