<?xml version="1.0" encoding="UTF-8" standalone="no"?>
<svg
   xmlns:dc="http://purl.org/dc/elements/1.1/"
   xmlns:cc="http://creativecommons.org/ns#"
   xmlns:rdf="http://www.w3.org/1999/02/22-rdf-syntax-ns#"
   xmlns:svg="http://www.w3.org/2000/svg"
   xmlns="http://www.w3.org/2000/svg"
   xmlns:sodipodi="http://sodipodi.sourceforge.net/DTD/sodipodi-0.dtd"
   xmlns:inkscape="http://www.inkscape.org/namespaces/inkscape"
   version="1.1"
   id="svg917"
   width="2560"
   height="1440"
   viewBox="0 0 2560 1440"
   sodipodi:docname="logo.svg"
   inkscape:export-filename="/home/jhonperez/Escritorio/Developer/johnperez.me/jbayronperez/assets/img/logo.png"
   inkscape:export-xdpi="95.5"
   inkscape:export-ydpi="95.5"
   inkscape:version="1.0.1 (0767f8302a, 2020-10-17)">
  <metadata
     id="metadata923">
    <rdf:RDF>
      <cc:Work
         rdf:about="">
        <dc:format>image/svg+xml</dc:format>
        <dc:type
           rdf:resource="http://purl.org/dc/dcmitype/StillImage" />
        <dc:title></dc:title>
      </cc:Work>
    </rdf:RDF>
  </metadata>
  <defs
     id="defs921">
    <style
       id="style833">
      .cls-1, .cls-2 {
        fill: none;
        stroke: #353535;
        stroke-linecap: round;
        stroke-width: 2px;
      }

      .cls-1 {
        stroke-linejoin: round;
      }

      .cls-2 {
        stroke-miterlimit: 10;
      }

      .cls-3 {
        fill: #353535;
      }
    </style>
    <style
       id="style1820">
      .cls-1, .cls-2 {
        fill: none;
        stroke: #353535;
        stroke-linecap: round;
        stroke-width: 2px;
      }

      .cls-1 {
        stroke-linejoin: round;
      }

      .cls-2 {
        stroke-miterlimit: 10;
      }

      .cls-3 {
        fill: #353535;
      }
    </style>
  </defs>
  <sodipodi:namedview
     pagecolor="#ffffff"
     bordercolor="#666666"
     borderopacity="1"
     objecttolerance="10"
     gridtolerance="10"
     guidetolerance="10"
     inkscape:pageopacity="0"
     inkscape:pageshadow="2"
     inkscape:window-width="1366"
     inkscape:window-height="704"
     id="namedview919"
     showgrid="false"
     inkscape:zoom="0.3296875"
     inkscape:cx="1234.7943"
     inkscape:cy="501.5983"
     inkscape:window-x="0"
     inkscape:window-y="56"
     inkscape:window-maximized="1"
     inkscape:current-layer="g925" />
  <g
     inkscape:groupmode="layer"
     id="layer1"
     inkscape:label="Back_fondo"
     style="display:inline" />
  <g
     inkscape:groupmode="layer"
     inkscape:label="logo"
     id="g925">
    <path
       class="cls-1"
       d="m 478.24986,578.75714 a 75.343121,65.288369 0 1 0 -150.68624,0 74.531215,64.584815 0 0 0 8.31118,29.2283 75.135768,65.108688 0 0 0 21.8261,127.4637"
       id="path1826"
       style="fill:none;stroke:#e6e6e6;stroke-width:26.4957px;stroke-linecap:round;stroke-linejoin:round;stroke-opacity:1" />
    <path
       class="cls-2"
       d="m 282.93031,705.90544 a 99.626993,86.33149 0 1 0 161.13228,83.6522 v -4.2654"
       id="path1828"
       style="fill:none;stroke:#e6e6e6;stroke-width:26.4957px;stroke-linecap:round;stroke-miterlimit:10;stroke-opacity:1" />
    <path
       class="cls-1"
       d="m 351.93801,961.99544 a 88.463684,76.657956 0 0 1 -47.2892,-67.8719 87.521418,75.841438 0 0 1 9.75895,-34.3226"
       id="path1830"
       style="fill:none;stroke:#e6e6e6;stroke-width:26.4957px;stroke-linecap:round;stroke-linejoin:round;stroke-opacity:1" />
    <path
       class="cls-2"
       d="m 502.35245,637.30534 a 71.15736,61.66121 0 0 1 -71.15738,61.6612"
       id="path1832"
       style="fill:none;stroke:#e6e6e6;stroke-width:26.4957px;stroke-linecap:round;stroke-miterlimit:10;stroke-opacity:1" />
    <path
       id="polyline1834"
       style="fill:none;stroke:#e6e6e6;stroke-width:26.4957px;stroke-linecap:round;stroke-miterlimit:10;stroke-opacity:1"
       d="m 502.35245,637.42864 h 163.6619 l 28.7618,-24.9111"
       class="cls-2" />
    <path
       id="polyline1836"
       style="fill:none;stroke:#e6e6e6;stroke-width:26.4957px;stroke-linecap:round;stroke-miterlimit:10;stroke-opacity:1"
       d="m 594.85695,686.75764 h 85.3889 l 28.7618,-24.9111 h 77.9742"
       class="cls-2" />
    <path
       id="polyline1838"
       style="fill:none;stroke:#e6e6e6;stroke-width:26.4957px;stroke-linecap:round;stroke-miterlimit:10;stroke-opacity:1"
       d="m 586.56005,834.49794 h 79.4543 l 28.7618,24.9111"
       class="cls-2" />
    <path
       id="polyline1840"
       style="fill:none;stroke:#e6e6e6;stroke-width:26.4957px;stroke-linecap:round;stroke-miterlimit:10;stroke-opacity:1"
       d="m 586.56005,785.16894 h 93.6858 l 28.7618,24.9111 h 77.9742"
       class="cls-2" />
    <path
       class="cls-2"
       d="m 786.98185,908.74024 h -106.438 l -21.6405,-24.9187 -70.5692,10e-4 v 74.6359 a 71.157365,61.661214 0 0 1 -142.31473,0"
       id="path1842"
       style="fill:none;stroke:#e6e6e6;stroke-width:26.4957px;stroke-linecap:round;stroke-miterlimit:10;stroke-opacity:1" />
    <path
       class="cls-2"
       d="m 474.48251,490.97004 a 57.676883,49.97974 0 0 1 113.85174,11.325 v 85.8047 h 63.4536 l 28.7568,-24.9182 h 106.4372"
       id="path1846"
       style="fill:none;stroke:#e6e6e6;stroke-width:26.4957px;stroke-linecap:round;stroke-miterlimit:10;stroke-opacity:1" />
    <path
       id="line1848"
       style="fill:none;stroke:#e6e6e6;stroke-width:26.4957px;stroke-linecap:round;stroke-miterlimit:10;stroke-opacity:1"
       d="M 744.28745,735.96334 H 588.33425"
       class="cls-2" />
    <path
       id="circle1850"
       style="fill:#2385a8;fill-opacity:1;stroke:#e6e6e6;stroke-width:13.2479;stroke-opacity:1"
       d="m 402.73212,686.63434 a 14.231472,12.332242 0 0 1 -14.23147,12.3322 14.231472,12.332242 0 0 1 -14.23147,-12.3322 14.231472,12.332242 0 0 1 14.23147,-12.3322 14.231472,12.332242 0 0 1 14.23147,12.3322 z"
       class="cls-3" />
    <path
       id="circle1852"
       style="fill:#2385a8;fill-opacity:1;stroke:#e6e6e6;stroke-width:13.2479;stroke-opacity:1"
       d="m 413.99875,976.44204 a 14.231472,12.332242 0 0 1 -14.23147,12.3322 14.231472,12.332242 0 0 1 -14.23147,-12.3322 14.231472,12.332242 0 0 1 14.23147,-12.3323 14.231472,12.332242 0 0 1 14.23147,12.3323 z"
       class="cls-3" />
    <path
       id="circle1856"
       style="fill:none;stroke:#e6e6e6;stroke-width:26.4957px;stroke-linecap:round;stroke-miterlimit:10;stroke-opacity:1"
       d="m 850.72775,563.31194 a 28.462944,24.664484 0 0 1 -28.4629,24.6645 28.462944,24.664484 0 0 1 -28.463,-24.6645 28.462944,24.664484 0 0 1 28.463,-24.6645 28.462944,24.664484 0 0 1 28.4629,24.6645 z"
       class="cls-2" />
    <path
       id="circle1858"
       style="fill:none;stroke:#e6e6e6;stroke-width:26.4957px;stroke-linecap:round;stroke-miterlimit:10;stroke-opacity:1"
       d="m 850.72775,661.96984 a 28.462944,24.664484 0 0 1 -28.4629,24.6645 28.462944,24.664484 0 0 1 -28.463,-24.6645 28.462944,24.664484 0 0 1 28.463,-24.6645 28.462944,24.664484 0 0 1 28.4629,24.6645 z"
       class="cls-2" />
    <path
       id="circle1860"
       style="fill:none;stroke:#e6e6e6;stroke-width:26.4957px;stroke-linecap:round;stroke-miterlimit:10;stroke-opacity:1"
       d="m 850.72775,809.95674 a 28.462944,24.664484 0 0 1 -28.4629,24.6645 28.462944,24.664484 0 0 1 -28.463,-24.6645 28.462944,24.664484 0 0 1 28.463,-24.6645 28.462944,24.664484 0 0 1 28.4629,24.6645 z"
       class="cls-2" />
    <path
       id="circle1862"
       style="fill:none;stroke:#e6e6e6;stroke-width:26.4957px;stroke-linecap:round;stroke-miterlimit:10;stroke-opacity:1"
       d="m 850.72775,908.61474 a 28.462944,24.664484 0 0 1 -28.4629,24.6644 28.462944,24.664484 0 0 1 -28.463,-24.6644 28.462944,24.664484 0 0 1 28.463,-24.6645 28.462944,24.664484 0 0 1 28.4629,24.6645 z"
       class="cls-2" />
    <path
       d="m 1083.909,528.38054 h 86.2272 q 34.787,0 50.3301,16.0928 15.9132,16.0928 15.9132,52.4765 v 13.2941 q 0,43.0307 -32.5665,51.427 19.984,4.8978 28.1256,22.7398 8.1416,17.8421 8.1416,47.2289 0,47.9286 -15.173,72.7675 -15.173,24.4891 -54.771,24.4891 h -86.2272 z m 75.125,112.9995 q 8.1416,0 11.1022,-5.5975 2.9606,-5.9474 2.9606,-16.4427 v -30.0865 q 0,-14.6935 -13.6927,-14.6935 h -13.3227 v 66.8202 z m -6.6613,134.6898 q 24.7949,0 24.7949,-22.39 v -37.4333 q 0,-13.6439 -4.4409,-20.6408 -4.0708,-6.9968 -14.8029,-6.9968 h -11.8424 v 87.111 z"
       style="font-style:normal;font-variant:normal;font-weight:normal;font-stretch:normal;font-size:48px;line-height:0;font-family:Anton;-inkscape-font-specification:Anton;letter-spacing:6.43px;fill:#333333;fill-opacity:1;stroke:none;stroke-width:7.49618"
       id="path873" />
    <path
       d="m 1302.058,828.89624 30.7162,-300.5157 h 107.6916 l 30.346,300.5157 h -60.322 l -4.4409,-48.6283 h -38.4877 l -3.7008,48.6283 z m 70.3141,-96.5569 h 28.8658 l -14.0628,-152.8817 h -2.9606 z"
       style="font-style:normal;font-variant:normal;font-weight:normal;font-stretch:normal;font-size:48px;line-height:0;font-family:Anton;-inkscape-font-specification:Anton;letter-spacing:6.43px;fill:#333333;fill-opacity:1;stroke:none;stroke-width:7.49618"
       id="path875" />
    <path
       d="m 1539.3989,528.38054 h 84.0068 q 38.1177,0 54.4009,23.4395 16.2833,23.0897 16.2833,67.8697 0,44.7799 -14.4329,67.5198 -14.4329,22.7398 -51.8104,22.7398 h -25.9052 v 118.9469 h -62.5425 z m 66.2433,127.3431 q 11.4723,0 16.6533,-3.8483 5.5511,-4.1982 7.0314,-11.5449 1.8504,-7.6965 1.8504,-21.6903 0,-18.8915 -4.4409,-27.2878 -4.4409,-8.3962 -17.7636,-8.3962 h -7.0314 v 72.7675 z"
       style="font-style:normal;font-variant:normal;font-weight:normal;font-stretch:normal;font-size:48px;line-height:0;font-family:Anton;-inkscape-font-specification:Anton;letter-spacing:6.43px;fill:#333333;fill-opacity:1;stroke:none;stroke-width:7.49618"
       id="path877" />
    <path
       d="m 1763.8912,828.89624 v -300.5157 h 127.3055 v 58.074 h -62.5425 v 58.4239 h 59.952 v 56.6747 h -59.952 v 68.9192 h 66.6134 v 58.4239 z"
       style="font-style:normal;font-variant:normal;font-weight:normal;font-stretch:normal;font-size:48px;line-height:0;font-family:Anton;-inkscape-font-specification:Anton;letter-spacing:6.43px;fill:#333333;fill-opacity:1;stroke:none;stroke-width:7.49618"
       id="path879" />
    <path
       d="m 2041.4719,831.69494 q -43.2987,0 -62.5425,-20.2909 -19.2439,-20.2909 -19.2439,-65.4208 v -29.3869 h 62.5425 v 37.4333 q 0,22.39 15.1731,22.39 8.5117,0 11.8423,-4.5479 3.3307,-4.8979 3.3307,-16.0929 0,-14.6934 -3.7007,-24.1392 -3.7008,-9.7956 -9.622,-16.0928 -5.5511,-6.647 -20.354,-20.2909 l -27.3855,-25.8884 q -31.8264,-29.3869 -31.8264,-65.071 0,-38.4828 18.5037,-58.4239 18.8738,-20.2909 54.771,-20.2909 42.9286,0 61.8023,21.6903 18.8738,21.3405 18.8738,67.17 h -64.7629 l -0.3701,-20.6408 q 0,-5.9473 -3.7008,-9.4458 -3.3306,-3.4984 -9.6219,-3.4984 -7.4015,0 -11.1022,3.8483 -3.7007,3.8483 -3.7007,10.4953 0,14.6934 17.7635,30.4364 l 37.0074,33.585 q 12.9526,11.8947 21.4643,22.7398 8.5117,10.4953 13.6928,25.1888 5.181,14.3436 5.181,34.2847 0,44.4301 -17.3935,67.5198 -17.0234,22.7398 -56.6213,22.7398 z"
       style="font-style:normal;font-variant:normal;font-weight:normal;font-stretch:normal;font-size:48px;line-height:0;font-family:Anton;-inkscape-font-specification:Anton;letter-spacing:6.43px;fill:#333333;fill-opacity:1;stroke:none;stroke-width:7.49618"
       id="path881" />
    <path
       d="m 2259.777,831.69494 q -39.2279,0 -58.4717,-20.9906 -18.8738,-20.9906 -18.8738,-62.2722 v -220.0516 h 61.8024 v 217.6027 q 0,14.3436 2.9605,22.39 2.9606,8.0464 12.5826,8.0464 9.6219,0 12.5825,-7.6965 2.9606,-8.0464 2.9606,-22.7399 v -217.6027 h 61.8024 v 220.0516 q 0,41.2816 -19.2439,62.2722 -18.8738,20.9906 -58.1016,20.9906 z"
       style="font-style:normal;font-variant:normal;font-weight:normal;font-stretch:normal;font-size:48px;line-height:0;font-family:Anton;-inkscape-font-specification:Anton;letter-spacing:6.43px;fill:#333333;fill-opacity:1;stroke:none;stroke-width:7.49618"
       id="path883" />
    <text
       xml:space="preserve"
       style="font-style:normal;font-weight:normal;font-size:139.929px;line-height:1.25;font-family:sans-serif;letter-spacing:41.229px;fill:#e6e6e6;fill-opacity:1;stroke:none;stroke-width:7.49618;"
       x="1044.3839"
       y="984.94263"
       id="text873"
       transform="scale(1.0285072,0.97228293)"><tspan
         sodipodi:role="line"
         id="tspan871"
         x="1044.3839"
         y="984.94263"
         style="font-style:normal;font-variant:normal;font-weight:normal;font-stretch:normal;font-size:139.929px;font-family:Cairo;-inkscape-font-specification:Cairo;fill:#e6e6e6;stroke-width:7.49618;fill-opacity:1;">TECHNOLOGY</tspan></text>
  </g>
</svg>
